<?xml version="1.0" encoding="utf-8" ?>
<!DOCTYPE svg PUBLIC "-//W3C//DTD SVG 1.1//EN" "http://www.w3.org/Graphics/SVG/1.1/DTD/svg11.dtd">
<svg height="346" version="1.1" width="876" xmlns="http://www.w3.org/2000/svg">
<rect fill="#ffffff" height="143" stroke="#ffffff" stroke-width="1" width="145" x="14" y="18"/>
<rect fill="none" height="143" stroke="#000000" stroke-width="1" width="145" x="14" y="18"/>
<text font-family="Dialog" font-size="12" x="66" y="32">
Person</text>
<rect fill="#000000" height="1" stroke="#000000" stroke-width="1" width="145" x="14" y="42"/>
<text font-family="Dialog" font-size="12" x="18" y="57">
Vorname : String</text>
<text font-family="Dialog" font-size="12" x="18" y="74">
Nachname : String</text>
<text font-family="Dialog" font-size="12" x="18" y="91">
Kundennummer : Integer</text>
<text font-family="Dialog" font-size="12" x="18" y="108">
Geburtsdatum : Integer</text>
<rect fill="#000000" height="1" stroke="#000000" stroke-width="1" width="145" x="14" y="126"/>
<text font-family="Dialog" font-size="12" x="18" y="141">
Umsatz() : double</text>
<rect fill="#ffffff" height="122" stroke="#ffffff" stroke-width="1" width="132" x="22" y="210"/>
<rect fill="none" height="122" stroke="#000000" stroke-width="1" width="132" x="22" y="210"/>
<text font-family="Dialog" font-size="12" x="65" y="224">
Adresse</text>
<rect fill="#000000" height="1" stroke="#000000" stroke-width="1" width="132" x="22" y="234"/>
<text font-family="Dialog" font-size="12" x="26" y="249">
PLZ : Integer</text>
<text font-family="Dialog" font-size="12" x="26" y="266">
Ort : String</text>
<text font-family="Dialog" font-size="12" x="26" y="283">
Straße : String</text>
<text font-family="Dialog" font-size="12" x="26" y="300">
Hausnummer : Integer</text>
<rect fill="#000000" height="1" stroke="#000000" stroke-width="1" width="132" x="22" y="310"/>
<polyline fill="none" points="86,160 86,210" stroke="#000000" stroke-width="1"/>
<polygon fill="#000000" points="86,160 91,170 86,180 81,170" stroke="#000000" stroke-width="1"/>
<polygon fill="none" points="86,160 91,170 86,180 81,170" stroke="#000000" stroke-width="1"/>
<text font-family="Dialog" font-size="12" x="95" y="190">
hat</text>
<text font-family="Dialog" font-size="12" x="65" y="179">
1</text>
<text font-family="Dialog" font-size="12" x="95" y="207">
1..*</text>
<rect fill="#ffffff" height="71" stroke="#ffffff" stroke-width="1" width="95" x="262" y="26"/>
<rect fill="none" height="71" stroke="#000000" stroke-width="1" width="95" x="262" y="26"/>
<text font-family="Dialog" font-size="12" x="279" y="40">
Warenkorb</text>
<rect fill="#000000" height="1" stroke="#000000" stroke-width="1" width="95" x="262" y="50"/>
<text font-family="Dialog" font-size="12" x="266" y="65">
Menge : Integer</text>
<rect fill="#000000" height="1" stroke="#000000" stroke-width="1" width="95" x="262" y="75"/>
<polyline fill="none" points="158,58 262,58" stroke="#000000" stroke-width="1"/>
<text font-family="Dialog" font-size="12" x="200" y="28">
hat</text>
<text font-family="Dialog" font-size="12" x="169" y="54">
1</text>
<text font-family="Dialog" font-size="12" x="238" y="54">
1..*</text>
<rect fill="#ffffff" height="88" stroke="#ffffff" stroke-width="1" width="138" x="510" y="34"/>
<rect fill="none" height="88" stroke="#000000" stroke-width="1" width="138" x="510" y="34"/>
<text font-family="Dialog" font-size="12" x="561" y="48">
Waren</text>
<rect fill="#000000" height="1" stroke="#000000" stroke-width="1" width="138" x="510" y="58"/>
<text font-family="Dialog" font-size="12" x="514" y="73">
Name : String</text>
<text font-family="Dialog" font-size="12" x="514" y="90">
Warennummer : Integer</text>
<rect fill="#000000" height="1" stroke="#000000" stroke-width="1" width="138" x="510" y="100"/>
<polyline fill="none" points="510,50 356,50" stroke="#000000" stroke-width="1"/>
<text font-family="Dialog" font-size="12" x="408" y="36">
legt in</text>
<text font-family="Dialog" font-size="12" x="486" y="46">
0..*</text>
<text font-family="Dialog" font-size="12" x="362" y="46">
0..*</text>
<rect fill="#ffffff" height="71" stroke="#ffffff" stroke-width="1" width="104" x="758" y="34"/>
<rect fill="none" height="71" stroke="#000000" stroke-width="1" width="104" x="758" y="34"/>
<text font-family="Dialog" font-size="12" x="774" y="48">
Lebensmittel</text>
<rect fill="#000000" height="1" stroke="#000000" stroke-width="1" width="104" x="758" y="58"/>
<text font-family="Dialog" font-size="12" x="762" y="73">
Gekühlt : boolean</text>
<rect fill="#000000" height="1" stroke="#000000" stroke-width="1" width="104" x="758" y="83"/>
<polyline fill="none" points="758,66 647,66" stroke="#000000" stroke-width="1"/>
<polygon fill="#ffffff" points="647,66 659,59 659,73" stroke="#ffffff" stroke-width="1"/>
<polygon fill="none" points="647,66 659,59 659,73" stroke="#000000" stroke-width="1"/>
<rect fill="#ffffff" height="93" stroke="#ffffff" stroke-width="1" width="150" x="510" y="226"/>
<rect fill="none" height="93" stroke="#000000" stroke-width="1" width="150" x="510" y="226"/>
<text font-family="Dialog" font-size="12" x="559" y="240">
Verkäufer</text>
<rect fill="#000000" height="1" stroke="#000000" stroke-width="1" width="150" x="510" y="250"/>
<text font-family="Dialog" font-size="12" x="514" y="265">
Name : String</text>
<text font-family="Dialog" font-size="12" x="514" y="282">
Gesellschaftsform : String</text>
<rect fill="#000000" height="1" stroke="#000000" stroke-width="1" width="150" x="510" y="292"/>
<text font-family="Dialog" font-size="12" x="514" y="307">
Umsatz() : double</text>
<polyline fill="none" points="582,226 582,121" stroke="#000000" stroke-width="1"/>
<text font-family="Dialog" font-size="12" x="492" y="178">
bietet an</text>
<text font-family="Dialog" font-size="12" x="556" y="210">
0..*</text>
<text font-family="Dialog" font-size="12" x="556" y="149">
0..*</text>
</svg>
